<?xml version="1.0" encoding="UTF-8"?>
<svg version="1.1" xmlns="http://www.w3.org/2000/svg" width="1254" height="1254" viewBox="0 0 1254 1254">
  <!-- White background -->
  <rect width="1254" height="1254" rx="280" fill="#FFFFFF"/>
  <!-- "n" letterform -->
  <path d="M0 0 C1.42505859 0.77730469 1.42505859 0.77730469 2.87890625 1.5703125 C20.68009171 11.76629666 34.37510348 26.88215715 43.3203125 45.26953125 C44.98380345 47.32212229 44.98380345 47.32212229 48.22265625 47.5625 C53.00196831 46.85079272 55.53156381 45.05688772 59.3125 42.1875 C60.72905741 41.16679657 62.14843236 40.14999426 63.5703125 39.13671875 C64.30024414 38.61384277 65.03017578 38.0909668 65.78222656 37.55224609 C105.57971613 9.69750824 151.94093237 -5.24088611 199.70605469 -11.56103516 C201.6662978 -11.8222653 203.62568979 -12.09024599 205.58300781 -12.37255859 C218.32794218 -14.20776331 231.08694654 -14.17898255 243.9375 -14.1875 C244.8399646 -14.18858765 245.7424292 -14.18967529 246.67224121 -14.1907959 C249.26985987 -14.19044124 251.86726186 -14.18127605 254.46484375 -14.16796875 C255.25050217 -14.16675522 256.03616058 -14.16554169 256.84562683 -14.16429138 C260.69560986 -14.13147417 264.25029049 -13.86671603 268 -13 C270.29053542 -12.87337335 272.58253561 -12.77231634 274.875 -12.6875 C303.19013925 -11.13023347 334.74737415 -3.47284627 359.87109375 9.91796875 C361.92681561 10.96280353 363.9474178 11.74896491 366.125 12.5 C369.63151034 13.75928248 372.52909168 15.46824367 375.63671875 17.5078125 C378.50556919 19.31921889 381.46571 20.92546825 384.4375 22.5625 C400.17802268 31.42176763 415.05795873 42.56635908 427.59375 55.59375 C429.11076273 57.16971004 429.11076273 57.16971004 431.5 58.9375 C435.11696449 61.9214957 437.98268215 65.42282825 441 69 C441.7425 69.85464844 442.485 70.70929688 443.25 71.58984375 C454.54625671 84.78691288 463.87210492 98.8717318 472.02001953 114.20117188 C472.82941048 115.68687006 473.70180205 117.13805738 474.58984375 118.578125 C476.35274377 121.60582032 477.67325894 124.76627241 479 128 C479.28810547 128.680625 479.57621094 129.36125 479.87304688 130.0625 C486.65235287 146.11497932 493.30387802 162.96562462 495.609375 180.33203125 C496.05620014 183.38384695 496.76307688 186.31784673 497.5 189.3125 C501.67345757 207.01807759 502.15068456 225.19415411 502.14717102 243.30514526 C502.15048116 244.88180032 502.15420908 246.45845454 502.1583125 248.03510773 C502.16820833 252.31960961 502.17202885 256.6040975 502.17470181 260.88860917 C502.17864174 265.52812163 502.18821642 270.16762339 502.19691467 274.80712891 C502.2165654 285.98046473 502.22672606 297.1538013 502.23564246 308.32715005 C502.23915713 312.54273872 502.24330299 316.75832665 502.24748212 320.97391471 C502.26592989 339.58305008 502.28168158 358.19218548 502.28938007 376.80132866 C502.2912896 381.34297562 502.29321 385.88462259 502.29516602 390.42626953 C502.29564976 391.55491476 502.2961335 392.68355999 502.2966319 393.84640659 C502.30493695 412.13999688 502.33029051 430.43352189 502.36274669 448.72708367 C502.39586244 467.54690494 502.4138325 486.36669304 502.41702431 505.18654358 C502.41918411 515.73809061 502.42785609 526.28954214 502.45348549 536.84106064 C502.47525344 545.82275442 502.48321262 554.80432943 502.47351871 563.78604661 C502.46899303 568.36153272 502.47075902 572.93677403 502.49028015 577.5122261 C502.65433193 618.2025359 502.65433193 618.2025359 494.1875 636.875 C493.83913086 637.66543701 493.49076172 638.45587402 493.13183594 639.27026367 C481.20013716 665.83973577 460.83123634 684.89976771 434 696 C433.08734375 696.37898437 432.1746875 696.75796875 431.234375 697.1484375 C417.69018019 702.41562437 403.64224014 704.12614713 389.21875 704.23828125 C388.20639282 704.246353 387.19403564 704.25442474 386.15100098 704.26274109 C384.0163744 704.27650063 381.88172658 704.28725869 379.74707031 704.29516602 C377.59661254 704.3066459 375.44618236 704.32703375 373.29589844 704.35668945 C348.41720904 704.69872366 327.37979165 700.93225636 308.85546875 682.9140625 C296.05600284 669.35592843 292.5232006 655.18892525 292.62818909 636.95533752 C292.6256092 635.4667669 292.62170336 633.97819809 292.6165995 632.48963398 C292.60639335 628.42984261 292.61458313 624.37027084 292.62589633 620.31049025 C292.63479274 615.91965528 292.62623346 611.52885 292.61968994 607.13801575 C292.61055335 599.53605238 292.61184736 591.93414945 292.61987495 584.33218575 C292.63113845 573.31831382 292.62203637 562.30452739 292.60731315 551.29066288 C292.58356174 533.38884508 292.57017946 515.48703787 292.56616211 497.58520508 C292.56591724 496.51489707 292.56567237 495.44458906 292.56542008 494.34184747 C292.5628764 482.41187842 292.56230629 470.48191017 292.56335449 458.55194092 C292.56368751 454.2306722 292.56397291 449.90940349 292.56420898 445.58813477 C292.56427177 444.52186852 292.56433456 443.45560226 292.56439925 442.35702492 C292.56500562 424.53057499 292.55005898 406.70417376 292.52337593 388.87774414 C292.50763135 377.90292872 292.50524909 366.92827124 292.52050995 355.95345431 C292.53002562 348.42090303 292.52514173 340.88844639 292.50929613 333.35590614 C292.50066137 329.02108721 292.49831608 324.6865205 292.51382256 320.35171509 C292.58042237 300.36491719 292.31482877 281.16009638 285.69640738 262.06050211 C285.00449783 260.01330799 284.40300575 257.95336312 283.8125 255.875 C275.21514616 230.43746853 255.34917394 211.61866418 232.05859375 199.3671875 C202.44878494 184.81231625 165.43833303 183.89863422 134.34716797 194.15917969 C121.40007882 198.79718416 109.65340946 205.32960788 99 214 C98.47325684 214.42506836 97.94651367 214.85013672 97.40380859 215.28808594 C77.3721756 231.74684344 63.94995706 257.47209582 61.20455599 283.18459749 C60.75824429 289.32740018 60.86490195 295.49309764 60.87542725 301.64886475 C60.87443989 303.23954051 60.87300185 304.83021605 60.87115407 306.42089105 C60.86810478 309.86886735 60.86819532 313.31682433 60.87071037 316.76480103 C60.87478306 322.3760224 60.87199435 327.98722876 60.86836243 333.59844971 C60.86427689 340.69057141 60.86203291 347.78268974 60.86194643 354.87481263 C60.8617434 368.81322453 60.84926632 382.75160176 60.83233643 396.69000244 C60.82973072 398.88631367 60.82713191 401.0826249 60.8245399 403.27893615 C60.8206016 406.60717598 60.81665504 409.9354158 60.81267868 413.26365559 C60.79774137 425.80304768 60.78411213 438.34244082 60.77197266 450.88183594 C60.7708591 452.02771369 60.76974553 453.17359144 60.76859823 454.35419276 C60.75102297 472.9231737 60.74815429 491.49213285 60.74982306 510.06112072 C60.75110291 529.13950514 60.73334754 548.21780859 60.69880509 567.29616189 C60.67817658 579.05620506 60.6728015 590.8160541 60.6871334 602.57610753 C60.69560443 610.63801263 60.68582961 618.69976699 60.6618239 626.76164028 C60.64854247 631.40939638 60.64328406 636.05679071 60.65994453 640.70454407 C60.67505106 644.96601864 60.66686603 649.22681345 60.640775 653.48822907 C60.63538624 655.02316856 60.63828607 656.55816642 60.65069196 658.09306523 C60.74768501 671.05297154 58.31591178 683.37576017 49 693 C46.49246353 695.32339772 43.9124649 697.21340628 41 699 C40.34128906 699.41507813 39.68257812 699.83015625 39.00390625 700.2578125 C29.76180119 704.9694739 17.12950506 705.10609012 7.32226562 702.20898438 C1.24241833 699.90159944 -4.49920834 696.91311572 -10.26318359 693.91796875 C-14.52926611 691.71030319 -18.85081072 689.6205777 -23.17578125 687.53125 C-24.82473075 686.73409854 -26.47365618 685.9368973 -28.12255859 685.13964844 C-28.95551453 684.73693726 -29.78847046 684.33422607 -30.64666748 683.91931152 C-34.87342239 681.87015426 -39.09057128 679.80143039 -43.30859375 677.734375 C-49.28995171 674.80525787 -55.27904593 671.89366126 -61.28515625 669.015625 C-62.24083496 668.55756721 -62.24083496 668.55756721 -63.21582031 668.09025574 C-64.45835367 667.4947713 -65.70088704 666.89928689 -66.94342041 666.30380249 C-77.10219484 661.43240262 -87.15634372 656.41670407 -97.08203125 651.0859375 C-104.75584644 646.93166303 -104.75584644 646.93166303 -112.8125 643.625 C-132.99086142 636.21575792 -149.09160151 619.59202342 -158.3125 600.4375 C-160.59286619 595.31274088 -161.99114427 590.50284946 -163 585 C-163.33 584.67 -163.66 584.34 -164 584 C-164.89195098 578.3525149 -165.14426649 572.86096828 -165.13142776 567.15233421 C-165.1334804 566.29298073 -165.13553303 565.43362724 -165.13764787 564.54823273 C-165.14329557 561.67295887 -165.14186338 558.79773325 -165.14044189 555.92245483 C-165.1430268 553.83837855 -165.14604031 551.75430276 -165.1494453 549.67022765 C-165.15750367 543.94613221 -165.15930422 538.22204932 -165.16004276 532.49794888 C-165.16189532 526.32325483 -165.16944364 520.14856725 -165.17617798 513.97387695 C-165.19046088 499.77007127 -165.19628658 485.56626972 -165.20086992 471.36245857 C-165.20320785 464.33997423 -165.2068107 457.31749069 -165.2105653 450.29500698 C-165.22339852 426.24523783 -165.23411822 402.19546914 -165.2375679 378.14569664 C-165.23778953 376.63679921 -165.23801132 375.12790178 -165.23823325 373.61900435 C-165.23845389 372.10651702 -165.23867437 370.5940297 -165.2388947 369.08154237 C-165.23933725 366.04736288 -165.23978436 363.01318339 -165.24023438 359.97900391 C-165.24034377 359.22670722 -165.24045316 358.47441054 -165.24056586 357.69931698 C-165.24419611 333.30870901 -165.26011611 308.91813077 -165.28342474 284.52753418 C-165.30803666 258.72587167 -165.32174136 232.92422615 -165.32293582 207.12255156 C-165.32310727 204.28865726 -165.32332269 201.45476297 -165.32357025 198.62086868 C-165.32362602 197.92311046 -165.32368179 197.22535225 -165.32373925 196.50644984 C-165.32488845 185.2921339 -165.33589922 174.07784855 -165.35045731 162.86354292 C-165.36484402 151.58601895 -165.36779509 140.30853351 -165.36001733 129.03099935 C-165.35611293 122.9250175 -165.35703037 116.81913829 -165.37107468 110.7131691 C-165.38382567 105.11825049 -165.3826054 99.52351152 -165.37048396 93.92859311 C-165.36852908 91.90975226 -165.37159571 89.89089863 -165.38032833 87.87207572 C-165.49146741 60.4308283 -157.44871989 39.46180891 -139 19 C-138.41605469 18.33226562 -137.83210938 17.66453125 -137.23046875 16.9765625 C-103.3417691 -19.57175662 -41.73001086 -23.01466303 0 0 Z " fill="#131A25" transform="translate(461,282)"/>
  <path d="M0 0 C0.11456351 33.92029894 0.20260874 67.84054956 0.25532665 101.76099915 C0.26157982 105.76994702 0.26805147 109.7788945 0.2746582 113.7878418 C0.27662553 114.98495388 0.27662553 114.98495388 0.2786326 116.20625005 C0.30036092 129.11118043 0.33976816 142.0159989 0.38576398 154.920863 C0.43260044 168.17257421 0.46031055 181.424227 0.47044247 194.67601758 C0.47728678 202.84637102 0.4988661 211.01640808 0.53958233 219.18666408 C0.56610962 224.79713954 0.57397855 230.40745259 0.56750689 236.01798614 C0.56431934 239.25014255 0.57181481 242.4816356 0.59602737 245.71371841 C0.81735049 276.79153153 0.81735049 276.79153153 -11 289 C-13.50753647 291.32339772 -16.0875351 293.21340628 -19 295 C-19.65871094 295.41507813 -20.31742188 295.83015625 -20.99609375 296.2578125 C-30.23819881 300.9694739 -42.87049494 301.10609012 -52.67773438 298.20898438 C-58.75758167 295.90159944 -64.49920834 292.91311572 -70.26318359 289.91796875 C-74.52926611 287.71030319 -78.85081072 285.6205777 -83.17578125 283.53125 C-84.82473075 282.73409854 -86.47365618 281.9368973 -88.12255859 281.13964844 C-88.95551453 280.73693726 -89.78847046 280.33422607 -90.64666748 279.91931152 C-94.87342239 277.87015426 -99.09057128 275.80143039 -103.30859375 273.734375 C-109.28995171 270.80525787 -115.27904593 267.89366126 -121.28515625 265.015625 C-121.92227539 264.71025314 -122.55939453 264.40488129 -123.21582031 264.09025574 C-124.45835367 263.4947713 -125.70088704 262.89928689 -126.94342041 262.30380249 C-137.10219484 257.43240262 -147.15634372 252.41670407 -157.08203125 247.0859375 C-164.75584644 242.93166303 -164.75584644 242.93166303 -172.8125 239.625 C-192.99086142 232.21575792 -209.09160151 215.59202342 -218.3125 196.4375 C-220.59286619 191.31274088 -221.99114427 186.50284946 -223 181 C-223.33 180.67 -223.66 180.34 -224 180 C-227.62451393 156.62451164 -223.58571096 137.04255394 -210.31640625 117.5234375 C-200.24753125 103.856811 -187.98465604 94.81080016 -172.8984375 87.421875 C-171.48340218 86.72127266 -170.06879298 86.01980924 -168.65454102 85.31762695 C-167.90302765 84.94457428 -167.15151428 84.57152161 -166.37722778 84.18716431 C-162.10931063 82.05580822 -157.86156113 79.88501026 -153.61328125 77.71484375 C-152.70596756 77.25142075 -151.79865387 76.78799774 -150.86384583 76.31053162 C-148.0130128 74.85360487 -145.1626964 73.39567174 -142.3125 71.9375 C-140.83589905 71.18240143 -140.83589905 71.18240143 -139.32946777 70.41204834 C-111.09844119 56.01291455 -111.09844119 56.01291455 -83.02709961 41.30639648 C-82.25503174 40.89591064 -81.48296387 40.4854248 -80.6875 40.0625 C-80.11539291 39.757677 -79.54328583 39.452854 -78.95384216 39.13879395 C-74.65872943 36.85789142 -70.33552638 34.64098083 -65.98046875 32.4765625 C-64.57231857 31.77455248 -63.16419872 31.07248162 -61.75610352 30.37036133 C-60.99645294 29.99191071 -60.23680237 29.61346008 -59.45413208 29.22354126 C-54.87611666 26.94110879 -50.30165201 24.6515713 -45.7265625 22.36328125 C-43.72787891 21.36390365 -41.72918083 20.36455501 -39.73046875 19.36523438 C-38.72677246 18.86338623 -37.72307617 18.36153809 -36.68896484 17.84448242 C-16.10400391 7.55200195 -16.10400391 7.55200195 -13.56573486 6.28482056 C-11.76187428 5.3815171 -9.96027074 4.47369922 -8.16033936 3.56259155 C-7.25197327 3.10389679 -6.34360718 2.64520203 -5.40771484 2.17260742 C-4.58572601 1.75581223 -3.76373718 1.33901703 -2.9168396 0.90959167 C-1 0 -1 0 0 0 Z " fill="#16A34A" transform="translate(521,686)"/>
</svg>
